<mxfile host="app.diagrams.net" modified="2023-08-17T11:05:58.583Z" agent="Mozilla/5.0 (X11; Linux x86_64) AppleWebKit/537.36 (KHTML, like Gecko) Chrome/115.0.0.0 Safari/537.36" etag="nUXKHyxzZP5uEXst-Tjv" version="21.6.8" type="device" pages="4">
  <diagram name="Page-1" id="d59C5zg_7T1TeNgBpkGo">
    <mxGraphModel dx="880" dy="1336" grid="1" gridSize="10" guides="1" tooltips="1" connect="1" arrows="1" fold="1" page="1" pageScale="1" pageWidth="1100" pageHeight="850" math="0" shadow="0">
      <root>
        <mxCell id="0" />
        <mxCell id="1" parent="0" />
        <mxCell id="HXuZYWFXMnalEL0bIfrd-1" value="" style="rounded=0;whiteSpace=wrap;html=1;" parent="1" vertex="1">
          <mxGeometry x="80" y="50" width="320" height="530" as="geometry" />
        </mxCell>
        <mxCell id="HXuZYWFXMnalEL0bIfrd-2" value="" style="rounded=0;whiteSpace=wrap;html=1;" parent="1" vertex="1">
          <mxGeometry x="400" y="50" width="640" height="530" as="geometry" />
        </mxCell>
        <mxCell id="HXuZYWFXMnalEL0bIfrd-3" value="main thread" style="shape=hexagon;perimeter=hexagonPerimeter2;whiteSpace=wrap;html=1;fixedSize=1;fontFamily=Ubuntu;fontSource=https%3A%2F%2Ffonts.googleapis.com%2Fcss%3Ffamily%3DUbuntu;fontSize=17;" parent="1" vertex="1">
          <mxGeometry x="180" y="10" width="120" height="30" as="geometry" />
        </mxCell>
        <mxCell id="HXuZYWFXMnalEL0bIfrd-4" value="STACK" style="text;html=1;strokeColor=none;fillColor=none;align=center;verticalAlign=middle;whiteSpace=wrap;rounded=0;fontFamily=Ubuntu;fontSource=https%3A%2F%2Ffonts.googleapis.com%2Fcss%3Ffamily%3DUbuntu;fontSize=16;fontStyle=1" parent="1" vertex="1">
          <mxGeometry x="200" y="590" width="60" height="30" as="geometry" />
        </mxCell>
        <mxCell id="HXuZYWFXMnalEL0bIfrd-5" value="HEAP" style="text;html=1;strokeColor=none;fillColor=none;align=center;verticalAlign=middle;whiteSpace=wrap;rounded=0;fontFamily=Ubuntu;fontSource=https%3A%2F%2Ffonts.googleapis.com%2Fcss%3Ffamily%3DUbuntu;fontSize=16;fontStyle=1" parent="1" vertex="1">
          <mxGeometry x="510" y="590" width="60" height="30" as="geometry" />
        </mxCell>
        <mxCell id="HXuZYWFXMnalEL0bIfrd-6" value="" style="rounded=0;whiteSpace=wrap;html=1;fillColor=#d5e8d4;strokeColor=#82b366;strokeWidth=10;" parent="1" vertex="1">
          <mxGeometry x="80" y="460" width="320" height="120" as="geometry" />
        </mxCell>
        <mxCell id="HXuZYWFXMnalEL0bIfrd-7" value="main()" style="text;html=1;strokeColor=#82b366;fillColor=#d5e8d4;align=center;verticalAlign=middle;whiteSpace=wrap;rounded=0;fontFamily=Ubuntu;fontSource=https%3A%2F%2Ffonts.googleapis.com%2Fcss%3Ffamily%3DUbuntu;fontSize=17;rotation=-90;" parent="1" vertex="1">
          <mxGeometry x="6.88" y="510" width="86.25" height="30" as="geometry" />
        </mxCell>
        <mxCell id="HXuZYWFXMnalEL0bIfrd-14" style="edgeStyle=orthogonalEdgeStyle;rounded=0;orthogonalLoop=1;jettySize=auto;html=1;entryX=0;entryY=0.5;entryDx=0;entryDy=0;" parent="1" source="HXuZYWFXMnalEL0bIfrd-8" target="HXuZYWFXMnalEL0bIfrd-12" edge="1">
          <mxGeometry relative="1" as="geometry" />
        </mxCell>
        <mxCell id="HXuZYWFXMnalEL0bIfrd-8" value="String[] args = 0xAF10" style="rounded=0;whiteSpace=wrap;html=1;fontFamily=Ubuntu;fontSource=https%3A%2F%2Ffonts.googleapis.com%2Fcss%3Ffamily%3DUbuntu;fontSize=17;" parent="1" vertex="1">
          <mxGeometry x="80" y="460" width="320" height="40" as="geometry" />
        </mxCell>
        <mxCell id="HXuZYWFXMnalEL0bIfrd-9" value="..." style="rounded=0;whiteSpace=wrap;html=1;fontFamily=Ubuntu;fontSource=https%3A%2F%2Ffonts.googleapis.com%2Fcss%3Ffamily%3DUbuntu;fontSize=17;" parent="1" vertex="1">
          <mxGeometry x="80" y="540" width="320" height="40" as="geometry" />
        </mxCell>
        <mxCell id="HXuZYWFXMnalEL0bIfrd-10" value="" style="rounded=0;whiteSpace=wrap;html=1;" parent="1" vertex="1">
          <mxGeometry x="490" y="240" width="20" height="40" as="geometry" />
        </mxCell>
        <mxCell id="HXuZYWFXMnalEL0bIfrd-11" value="int length = 0" style="rounded=0;whiteSpace=wrap;html=1;fontSize=18;fontFamily=Ubuntu;fontSource=https%3A%2F%2Ffonts.googleapis.com%2Fcss%3Ffamily%3DUbuntu;" parent="1" vertex="1">
          <mxGeometry x="490" y="280" width="140" height="40" as="geometry" />
        </mxCell>
        <mxCell id="HXuZYWFXMnalEL0bIfrd-12" value="0xAF10" style="rounded=0;whiteSpace=wrap;html=1;fontFamily=Ubuntu;fontSource=https%3A%2F%2Ffonts.googleapis.com%2Fcss%3Ffamily%3DUbuntu;fontSize=17;fillColor=#dae8fc;strokeColor=#6c8ebf;" parent="1" vertex="1">
          <mxGeometry x="490" y="210" width="140" height="30" as="geometry" />
        </mxCell>
        <mxCell id="HXuZYWFXMnalEL0bIfrd-13" value="..." style="rounded=0;whiteSpace=wrap;html=1;fontSize=18;fontFamily=Ubuntu;fontSource=https%3A%2F%2Ffonts.googleapis.com%2Fcss%3Ffamily%3DUbuntu;" parent="1" vertex="1">
          <mxGeometry x="490" y="320" width="140" height="40" as="geometry" />
        </mxCell>
        <mxCell id="ICK5VJWrA5xjREezXN3a-1" value="&lt;font style=&quot;font-size: 20px;&quot;&gt;&lt;br&gt;&lt;/font&gt;" style="text;html=1;strokeColor=#b85450;fillColor=#f8cecc;align=left;verticalAlign=top;whiteSpace=wrap;rounded=0;fontFamily=Ubuntu;fontSource=https%3A%2F%2Ffonts.googleapis.com%2Fcss%3Ffamily%3DUbuntu;fontSize=20;" parent="1" vertex="1">
          <mxGeometry x="710" y="80" width="480" height="230" as="geometry" />
        </mxCell>
        <mxCell id="1NFLjApa9wqqGEOJWG5P-1" value="int x = 5" style="rounded=0;whiteSpace=wrap;html=1;fontFamily=Ubuntu;fontSource=https%3A%2F%2Ffonts.googleapis.com%2Fcss%3Ffamily%3DUbuntu;fontSize=17;" vertex="1" parent="1">
          <mxGeometry x="80" y="500" width="320" height="40" as="geometry" />
        </mxCell>
        <mxCell id="1NFLjApa9wqqGEOJWG5P-2" value="" style="rounded=0;whiteSpace=wrap;html=1;fillColor=#e1d5e7;strokeColor=#9673a6;strokeWidth=10;" vertex="1" parent="1">
          <mxGeometry x="80" y="370" width="320" height="80" as="geometry" />
        </mxCell>
        <mxCell id="1NFLjApa9wqqGEOJWG5P-3" value="int x = 5" style="rounded=0;whiteSpace=wrap;html=1;fontFamily=Ubuntu;fontSource=https%3A%2F%2Ffonts.googleapis.com%2Fcss%3Ffamily%3DUbuntu;fontSize=17;" vertex="1" parent="1">
          <mxGeometry x="80" y="370" width="320" height="40" as="geometry" />
        </mxCell>
        <mxCell id="1NFLjApa9wqqGEOJWG5P-4" value="..." style="rounded=0;whiteSpace=wrap;html=1;fontFamily=Ubuntu;fontSource=https%3A%2F%2Ffonts.googleapis.com%2Fcss%3Ffamily%3DUbuntu;fontSize=17;" vertex="1" parent="1">
          <mxGeometry x="80" y="410" width="320" height="40" as="geometry" />
        </mxCell>
        <mxCell id="1NFLjApa9wqqGEOJWG5P-5" value="myFun()" style="text;html=1;strokeColor=#9673a6;fillColor=#e1d5e7;align=center;verticalAlign=middle;whiteSpace=wrap;rounded=0;fontFamily=Ubuntu;fontSource=https%3A%2F%2Ffonts.googleapis.com%2Fcss%3Ffamily%3DUbuntu;fontSize=17;rotation=-90;" vertex="1" parent="1">
          <mxGeometry x="6.88" y="395" width="86.25" height="30" as="geometry" />
        </mxCell>
        <mxCell id="1NFLjApa9wqqGEOJWG5P-6" value="Processor" style="rhombus;whiteSpace=wrap;html=1;fontFamily=Ubuntu;fontSource=https%3A%2F%2Ffonts.googleapis.com%2Fcss%3Ffamily%3DUbuntu;fontSize=23;" vertex="1" parent="1">
          <mxGeometry x="430" y="-180" width="210" height="170" as="geometry" />
        </mxCell>
        <mxCell id="1NFLjApa9wqqGEOJWG5P-7" value="25" style="rounded=0;whiteSpace=wrap;html=1;fontFamily=Ubuntu;fontSource=https%3A%2F%2Ffonts.googleapis.com%2Fcss%3Ffamily%3DUbuntu;fontSize=17;" vertex="1" parent="1">
          <mxGeometry x="640" y="-125" width="120" height="60" as="geometry" />
        </mxCell>
        <mxCell id="1NFLjApa9wqqGEOJWG5P-8" value="CPU Register" style="text;html=1;strokeColor=none;fillColor=none;align=center;verticalAlign=middle;whiteSpace=wrap;rounded=0;fontFamily=Ubuntu;fontSource=https%3A%2F%2Ffonts.googleapis.com%2Fcss%3Ffamily%3DUbuntu;fontSize=19;" vertex="1" parent="1">
          <mxGeometry x="630" y="-160" width="140" height="30" as="geometry" />
        </mxCell>
      </root>
    </mxGraphModel>
  </diagram>
  <diagram name="Page-2" id="mfgdod0-6kR8fxe1EkGR">
    <mxGraphModel dx="1035" dy="1422" grid="1" gridSize="10" guides="1" tooltips="1" connect="1" arrows="1" fold="1" page="1" pageScale="1" pageWidth="1100" pageHeight="850" math="0" shadow="0">
      <root>
        <mxCell id="yDuabXodWoQyrpu-av_H-0" />
        <mxCell id="yDuabXodWoQyrpu-av_H-1" parent="yDuabXodWoQyrpu-av_H-0" />
        <mxCell id="yDuabXodWoQyrpu-av_H-2" value="" style="rounded=0;whiteSpace=wrap;html=1;" vertex="1" parent="yDuabXodWoQyrpu-av_H-1">
          <mxGeometry x="80" y="50" width="320" height="530" as="geometry" />
        </mxCell>
        <mxCell id="yDuabXodWoQyrpu-av_H-3" value="" style="rounded=0;whiteSpace=wrap;html=1;" vertex="1" parent="yDuabXodWoQyrpu-av_H-1">
          <mxGeometry x="400" y="50" width="640" height="530" as="geometry" />
        </mxCell>
        <mxCell id="yDuabXodWoQyrpu-av_H-4" value="main thread" style="shape=hexagon;perimeter=hexagonPerimeter2;whiteSpace=wrap;html=1;fixedSize=1;fontFamily=Ubuntu;fontSource=https%3A%2F%2Ffonts.googleapis.com%2Fcss%3Ffamily%3DUbuntu;fontSize=17;" vertex="1" parent="yDuabXodWoQyrpu-av_H-1">
          <mxGeometry x="180" y="10" width="120" height="30" as="geometry" />
        </mxCell>
        <mxCell id="yDuabXodWoQyrpu-av_H-5" value="STACK" style="text;html=1;strokeColor=none;fillColor=none;align=center;verticalAlign=middle;whiteSpace=wrap;rounded=0;fontFamily=Ubuntu;fontSource=https%3A%2F%2Ffonts.googleapis.com%2Fcss%3Ffamily%3DUbuntu;fontSize=16;fontStyle=1" vertex="1" parent="yDuabXodWoQyrpu-av_H-1">
          <mxGeometry x="200" y="590" width="60" height="30" as="geometry" />
        </mxCell>
        <mxCell id="yDuabXodWoQyrpu-av_H-6" value="HEAP" style="text;html=1;strokeColor=none;fillColor=none;align=center;verticalAlign=middle;whiteSpace=wrap;rounded=0;fontFamily=Ubuntu;fontSource=https%3A%2F%2Ffonts.googleapis.com%2Fcss%3Ffamily%3DUbuntu;fontSize=16;fontStyle=1" vertex="1" parent="yDuabXodWoQyrpu-av_H-1">
          <mxGeometry x="510" y="590" width="60" height="30" as="geometry" />
        </mxCell>
        <mxCell id="yDuabXodWoQyrpu-av_H-7" value="" style="rounded=0;whiteSpace=wrap;html=1;fillColor=#d5e8d4;strokeColor=#82b366;strokeWidth=10;" vertex="1" parent="yDuabXodWoQyrpu-av_H-1">
          <mxGeometry x="80" y="460" width="320" height="120" as="geometry" />
        </mxCell>
        <mxCell id="yDuabXodWoQyrpu-av_H-8" value="main()" style="text;html=1;strokeColor=#82b366;fillColor=#d5e8d4;align=center;verticalAlign=middle;whiteSpace=wrap;rounded=0;fontFamily=Ubuntu;fontSource=https%3A%2F%2Ffonts.googleapis.com%2Fcss%3Ffamily%3DUbuntu;fontSize=17;rotation=-90;" vertex="1" parent="yDuabXodWoQyrpu-av_H-1">
          <mxGeometry x="6.88" y="510" width="86.25" height="30" as="geometry" />
        </mxCell>
        <mxCell id="yDuabXodWoQyrpu-av_H-9" style="edgeStyle=orthogonalEdgeStyle;rounded=0;orthogonalLoop=1;jettySize=auto;html=1;entryX=0;entryY=0.5;entryDx=0;entryDy=0;" edge="1" parent="yDuabXodWoQyrpu-av_H-1" source="yDuabXodWoQyrpu-av_H-10" target="yDuabXodWoQyrpu-av_H-14">
          <mxGeometry relative="1" as="geometry" />
        </mxCell>
        <mxCell id="yDuabXodWoQyrpu-av_H-10" value="String[] args = 0xAF10" style="rounded=0;whiteSpace=wrap;html=1;fontFamily=Ubuntu;fontSource=https%3A%2F%2Ffonts.googleapis.com%2Fcss%3Ffamily%3DUbuntu;fontSize=17;" vertex="1" parent="yDuabXodWoQyrpu-av_H-1">
          <mxGeometry x="80" y="460" width="320" height="40" as="geometry" />
        </mxCell>
        <mxCell id="yDuabXodWoQyrpu-av_H-11" value="..." style="rounded=0;whiteSpace=wrap;html=1;fontFamily=Ubuntu;fontSource=https%3A%2F%2Ffonts.googleapis.com%2Fcss%3Ffamily%3DUbuntu;fontSize=17;" vertex="1" parent="yDuabXodWoQyrpu-av_H-1">
          <mxGeometry x="80" y="540" width="320" height="40" as="geometry" />
        </mxCell>
        <mxCell id="yDuabXodWoQyrpu-av_H-12" value="" style="rounded=0;whiteSpace=wrap;html=1;" vertex="1" parent="yDuabXodWoQyrpu-av_H-1">
          <mxGeometry x="490" y="240" width="20" height="40" as="geometry" />
        </mxCell>
        <mxCell id="yDuabXodWoQyrpu-av_H-13" value="int length = 0" style="rounded=0;whiteSpace=wrap;html=1;fontSize=18;fontFamily=Ubuntu;fontSource=https%3A%2F%2Ffonts.googleapis.com%2Fcss%3Ffamily%3DUbuntu;" vertex="1" parent="yDuabXodWoQyrpu-av_H-1">
          <mxGeometry x="490" y="280" width="140" height="40" as="geometry" />
        </mxCell>
        <mxCell id="yDuabXodWoQyrpu-av_H-14" value="0xAF10" style="rounded=0;whiteSpace=wrap;html=1;fontFamily=Ubuntu;fontSource=https%3A%2F%2Ffonts.googleapis.com%2Fcss%3Ffamily%3DUbuntu;fontSize=17;fillColor=#dae8fc;strokeColor=#6c8ebf;" vertex="1" parent="yDuabXodWoQyrpu-av_H-1">
          <mxGeometry x="490" y="210" width="140" height="30" as="geometry" />
        </mxCell>
        <mxCell id="yDuabXodWoQyrpu-av_H-15" value="..." style="rounded=0;whiteSpace=wrap;html=1;fontSize=18;fontFamily=Ubuntu;fontSource=https%3A%2F%2Ffonts.googleapis.com%2Fcss%3Ffamily%3DUbuntu;" vertex="1" parent="yDuabXodWoQyrpu-av_H-1">
          <mxGeometry x="490" y="320" width="140" height="40" as="geometry" />
        </mxCell>
        <mxCell id="yDuabXodWoQyrpu-av_H-16" value="&lt;font style=&quot;font-size: 20px;&quot;&gt;&lt;br&gt;&lt;/font&gt;" style="text;html=1;strokeColor=#b85450;fillColor=#f8cecc;align=left;verticalAlign=top;whiteSpace=wrap;rounded=0;fontFamily=Ubuntu;fontSource=https%3A%2F%2Ffonts.googleapis.com%2Fcss%3Ffamily%3DUbuntu;fontSize=20;" vertex="1" parent="yDuabXodWoQyrpu-av_H-1">
          <mxGeometry x="710" y="80" width="480" height="230" as="geometry" />
        </mxCell>
        <mxCell id="yDuabXodWoQyrpu-av_H-17" value="int x = 25" style="rounded=0;whiteSpace=wrap;html=1;fontFamily=Ubuntu;fontSource=https%3A%2F%2Ffonts.googleapis.com%2Fcss%3Ffamily%3DUbuntu;fontSize=17;" vertex="1" parent="yDuabXodWoQyrpu-av_H-1">
          <mxGeometry x="80" y="500" width="320" height="40" as="geometry" />
        </mxCell>
        <mxCell id="yDuabXodWoQyrpu-av_H-22" value="Processor" style="rhombus;whiteSpace=wrap;html=1;fontFamily=Ubuntu;fontSource=https%3A%2F%2Ffonts.googleapis.com%2Fcss%3Ffamily%3DUbuntu;fontSize=23;" vertex="1" parent="yDuabXodWoQyrpu-av_H-1">
          <mxGeometry x="430" y="-180" width="210" height="170" as="geometry" />
        </mxCell>
        <mxCell id="yDuabXodWoQyrpu-av_H-23" value="25" style="rounded=0;whiteSpace=wrap;html=1;fontFamily=Ubuntu;fontSource=https%3A%2F%2Ffonts.googleapis.com%2Fcss%3Ffamily%3DUbuntu;fontSize=17;" vertex="1" parent="yDuabXodWoQyrpu-av_H-1">
          <mxGeometry x="640" y="-125" width="120" height="60" as="geometry" />
        </mxCell>
        <mxCell id="yDuabXodWoQyrpu-av_H-24" value="CPU Register" style="text;html=1;strokeColor=none;fillColor=none;align=center;verticalAlign=middle;whiteSpace=wrap;rounded=0;fontFamily=Ubuntu;fontSource=https%3A%2F%2Ffonts.googleapis.com%2Fcss%3Ffamily%3DUbuntu;fontSize=19;" vertex="1" parent="yDuabXodWoQyrpu-av_H-1">
          <mxGeometry x="630" y="-160" width="140" height="30" as="geometry" />
        </mxCell>
        <mxCell id="azZnzyIxEeHBAdb-iAwq-1" value="" style="shape=stencil(lVrJch03DPwaXVncl7OT/IerLMeqOJZLdra/T09U4HtszrTim/3U4BAklgbAh/Tu26f3Xx8fov/2/eX5t8e/nj58//SQfnqI8enLp8eXp+/410P6+SG9+/j88vjry/MfXz68/v/r+wN5/Ov35z+PFf5+lRvDhXxIRf/P6y/R1fLfD7+84j8/fbnHN1fKgg8uVYHPbvgF712PAh9dq4SX+/EuJsKXfI3v2D/vpwSBz642wjehbw+uNT4fsZ82XGx0/n4IfHMhEr53gS8ur+snV9T62YWx4LOL4nxacqERvqn1I+tb9PkElwPhexN4mMtqP9Vlf42vw41E+CHOE/iw4pt98BzfXVj9pduFnOPx+fV8hhnsOb6wvgEnoBTAffZVINgRnAvAwOgLyUWlMix+NaEAJxI2UYbr65mGalZ1LtBdXINWwC0IKyqVvTgM54UOpbiwhgn4fVZfSC6vSsPxlaEW/Hk1bHhmFpGueOfXU4IrBHFxubNrwra7EqjmilOgu6IEsu14BhfvkogWOdp6UyCaf5wLeL64lNwQAqmztaYiHTQ151d/wC9RKI318hqB8c0mPA47pi1lfUo4k7Qeaw4yyOPUB30BtiR0QFCpqw65SH+AIaT14mAsKg8iLFKchDlmEQRgm54CvbdIdS6QzRCmQDQPORdIm0ByTdwDBMjjEBbklmDMqy0h8DQRBOKe3br0h4N9rBeH4JmVDlvUqHApcUoIjGnVAfG8iS2Fbgl/CiBjiJQFAaIANWmBxpwQSUx5HAQoxyFNqptGvqFgjDxc1Zaqsd4p0GReD4V5MJhBUjoU8+ApgJtRW8oWIyYz8RZHrgTiqgPIVhHcHHm/0BeiJPMhblvCN7VAXE8J/LUpgbnjKdDMus4FPAfj1iVhhUBcv9C9pD/D3GvigzSlYXx/4qMZ43mFYfx94hHXxBEhoKymjZJG8b3JpCa+2JFd4Klg6Ih5ik+6Rus3WZFUy5UT3zUTs9OY+CEtoli9OAm3N+53gScTBb6L/Wf768QHWdGCK6/6oiRWgSK7tOo7ktx/dr4xXtIXi80TD9Yn8dQgGMVaDBf45BmvmEVifxlVVpBb+QL8UBmTC6rRdIblKDq6jtNbgdfdEPtHhCP8ME58gSdODrzMrpyNgVfnE5zPG17YgzfruhWo4CRiQ55rhOMDQmG/GdCwXHuBD9v6ygGw27hdgLiwqd0dXjFfvznkkAbtrSFzh1dJ1TPHPHp+El83A/Ly/Me2vqolggt12480uLSdT5QGXbb7SopDWHq+vy/pYJSAx6ymrvDb+irABa7CDwdWTJE7gof9i/W99SX+v0NyRsIHpEHvF6YYh+eq6VBYGqjfDFT1l84cUvWI/UmES3r9H8Rn0rfLFgUuLDPey4xBjAkZ7A2HofMER5N4KpaGbtfFLcAVKyQu8OwAWWaYyIwbeNVficwQwYBUSZy4AgAjUxk7bYwy6o7SxlCCTBh5SwBeMu7MZRsYseqhZfPuO7wK0IUTDBi6apMU1hcVgOpWbW1JVBjKfqpFj7sKRlX/8A7SN0vG1HjEgwpMlZBbvwMVnmrRd/YvVJAqIQ2bcNxVqKoxHLaAhRpYUkpv8fWuylZtqrDlbNTxqshD4e+pLM/Wl70SaGvQalHrkLht2+Ymr9ojfEpeh1H4GfWEhj6lsvXmum6PFKYStclId3SdqBFW5ZAh4M+kQzGtrgSoqVqz7i+27QtJ1sMQGFt/UfHv0Dne1aCNb/AMuXrNAAdT3jJkT2inUKVJCnXk8K2TrEhmjKzDMcJSAokHk2VW7lf9duLtRU+4jk7J6nHFyzyyB/qsS2lEYvK4XLUO23QoZyNX56l56/7lJINACttkJWhykfgBRvayfErZyJkJpC6fMKTKtoRfVIGA9WhLx8xLKT04CEArxSDzRiFxbrKJlozhTIFZBZwLFCaFtzR8LrDFJZijinx5MM0+Wn164kudq8MHFU+KTDSibiWXzJP3o7bSY266uKC74QhbZVUa4Vll0bK1t2+TkHPy5vnikFezCGTIBjSqBzeQTzgSZ1HQFZVQkNH4BYSXLVkkWXKgIS+6bvOqLmP3QRPWW5gU9hw/NqKhCfTgirPIDlzbpvRFsoxjzrTq+8ZIIm5xXsajlriFleTDB3BN6skmG2qc47fnJFHr23kOpkcAPfBjEi8jC+oVqjj1iKpvXqwbQMcjO96PmrSPbe6nC5JR2J697NiNzmQn2OOBc/zG16Jef7A96BHMXQPtziAURT0TUDn81mO/w4sdje1Zm+bMR8etMF54wK2FecOrFsTRoeP1VQ/01qG7w6sSeHB19+b6nLxtLHmFj9v6ymN+9Fntm3j84/aG9+PT58+vT4Dv/85vfvHT63vh9PO/);lineShape=1;" vertex="1" parent="yDuabXodWoQyrpu-av_H-1">
          <mxGeometry x="351.31797910810906" y="-82.40651814279545" width="348.28127036535614" height="593.6749567943568" as="geometry" />
        </mxCell>
        <mxCell id="azZnzyIxEeHBAdb-iAwq-2" value="" style="shape=stencil(lVfLctswDPwaXTEkQYLkOU3/IzNxak9dO+M4bfP3gaqhY1DWurrJMlfEY3cJDvzwtn163QzBvZ1Px5+bP7vn83bgb0MIu8N2c9qd9Wngx4EfXo6nzY/T8f3wPP1+fRpXjk+/jr/HL/ydcJ6J/YgK7mN6I8T534vv0/r97nC9XkjYrPeVYl0GBE+xGABnCgIAiSQaQAqUPABUCtmmIFTCMoCZqgXkTB7sEJmCzSEzOZC0RlxsDpJhlSSR69rgKZVlQE6UbQ5JqIIcqqNcLSCSA1WqTOJ6QIwAIORnIXkHAIVCsIACG1crpa6sodH3NludI2eTUG4EVKbZFtlBbsyTyJfCLZZJLEBgEtqIZDundK1Ao2OrO7oWiiCkUhoTrnZICQBSzw3lI9Jo4Z6uWUWNQgqUbUii3GAISJ0LRCpAQRoSWydTyTkEiE1gF7pmKijpPBNEogj4XSqV1EvOA6+sgaSsAiRiWRNSzSSrklYB+bqmrAqoNumxccArFdA52UgNZEyFst3hDvmq9J2+Q+8am7v/p4Cqp2zJd0eiqwHFtRQbQN94UFb1uU5ASnjkS6n2J7vyV0Cno0Zsd1A6osax9GZ8Zei3ZwGljvRbZNAIr9ywrS740PKxH4DU7zPI2vu+rmPhgEbV3K3z6fghwO65Z7dOUGgScG3AuxQ1QGedHaH+wpSl9bZABc57rhXjawBFY4lvH7uMk1TR+ElsORoogOVaS/t13+ay2xIgtq1yFEAlpZ87MZlLb72ubbcw7JBPXfBI8CMxXVebBNToZyes+gNSytqrxd31+vB1j3nZ7ffTNej6//7eo6+mOxM/fgI=);lineShape=1;" vertex="1" parent="yDuabXodWoQyrpu-av_H-1">
          <mxGeometry x="338.881075040553" y="499.1623309527654" width="37.86280114839268" height="27.11135181863777" as="geometry" />
        </mxCell>
      </root>
    </mxGraphModel>
  </diagram>
  <diagram name="Page-3" id="VmzzZTCBiTG6t1gNHJ3I">
    <mxGraphModel dx="880" dy="1445" grid="1" gridSize="10" guides="1" tooltips="1" connect="1" arrows="1" fold="1" page="1" pageScale="1" pageWidth="1100" pageHeight="850" math="0" shadow="0">
      <root>
        <mxCell id="dVgFs5One8DjvJMpintY-0" />
        <mxCell id="dVgFs5One8DjvJMpintY-1" parent="dVgFs5One8DjvJMpintY-0" />
        <mxCell id="dVgFs5One8DjvJMpintY-2" value="" style="rounded=0;whiteSpace=wrap;html=1;" vertex="1" parent="dVgFs5One8DjvJMpintY-1">
          <mxGeometry x="80" y="50" width="320" height="530" as="geometry" />
        </mxCell>
        <mxCell id="dVgFs5One8DjvJMpintY-3" value="" style="rounded=0;whiteSpace=wrap;html=1;" vertex="1" parent="dVgFs5One8DjvJMpintY-1">
          <mxGeometry x="400" y="50" width="640" height="530" as="geometry" />
        </mxCell>
        <mxCell id="dVgFs5One8DjvJMpintY-4" value="main thread" style="shape=hexagon;perimeter=hexagonPerimeter2;whiteSpace=wrap;html=1;fixedSize=1;fontFamily=Ubuntu;fontSource=https%3A%2F%2Ffonts.googleapis.com%2Fcss%3Ffamily%3DUbuntu;fontSize=17;" vertex="1" parent="dVgFs5One8DjvJMpintY-1">
          <mxGeometry x="180" y="10" width="120" height="30" as="geometry" />
        </mxCell>
        <mxCell id="dVgFs5One8DjvJMpintY-5" value="STACK" style="text;html=1;strokeColor=none;fillColor=none;align=center;verticalAlign=middle;whiteSpace=wrap;rounded=0;fontFamily=Ubuntu;fontSource=https%3A%2F%2Ffonts.googleapis.com%2Fcss%3Ffamily%3DUbuntu;fontSize=16;fontStyle=1" vertex="1" parent="dVgFs5One8DjvJMpintY-1">
          <mxGeometry x="200" y="590" width="60" height="30" as="geometry" />
        </mxCell>
        <mxCell id="dVgFs5One8DjvJMpintY-6" value="HEAP" style="text;html=1;strokeColor=none;fillColor=none;align=center;verticalAlign=middle;whiteSpace=wrap;rounded=0;fontFamily=Ubuntu;fontSource=https%3A%2F%2Ffonts.googleapis.com%2Fcss%3Ffamily%3DUbuntu;fontSize=16;fontStyle=1" vertex="1" parent="dVgFs5One8DjvJMpintY-1">
          <mxGeometry x="510" y="590" width="60" height="30" as="geometry" />
        </mxCell>
        <mxCell id="dVgFs5One8DjvJMpintY-7" value="" style="rounded=0;whiteSpace=wrap;html=1;fillColor=#d5e8d4;strokeColor=#82b366;strokeWidth=10;" vertex="1" parent="dVgFs5One8DjvJMpintY-1">
          <mxGeometry x="80" y="460" width="320" height="120" as="geometry" />
        </mxCell>
        <mxCell id="dVgFs5One8DjvJMpintY-8" value="main()" style="text;html=1;strokeColor=#82b366;fillColor=#d5e8d4;align=center;verticalAlign=middle;whiteSpace=wrap;rounded=0;fontFamily=Ubuntu;fontSource=https%3A%2F%2Ffonts.googleapis.com%2Fcss%3Ffamily%3DUbuntu;fontSize=17;rotation=-90;" vertex="1" parent="dVgFs5One8DjvJMpintY-1">
          <mxGeometry x="6.88" y="510" width="86.25" height="30" as="geometry" />
        </mxCell>
        <mxCell id="dVgFs5One8DjvJMpintY-9" style="edgeStyle=orthogonalEdgeStyle;rounded=0;orthogonalLoop=1;jettySize=auto;html=1;entryX=0;entryY=0.5;entryDx=0;entryDy=0;" edge="1" parent="dVgFs5One8DjvJMpintY-1" source="dVgFs5One8DjvJMpintY-10" target="dVgFs5One8DjvJMpintY-14">
          <mxGeometry relative="1" as="geometry" />
        </mxCell>
        <mxCell id="dVgFs5One8DjvJMpintY-10" value="String[] args = 0xAF10" style="rounded=0;whiteSpace=wrap;html=1;fontFamily=Ubuntu;fontSource=https%3A%2F%2Ffonts.googleapis.com%2Fcss%3Ffamily%3DUbuntu;fontSize=17;" vertex="1" parent="dVgFs5One8DjvJMpintY-1">
          <mxGeometry x="80" y="460" width="320" height="40" as="geometry" />
        </mxCell>
        <mxCell id="dVgFs5One8DjvJMpintY-11" value="..." style="rounded=0;whiteSpace=wrap;html=1;fontFamily=Ubuntu;fontSource=https%3A%2F%2Ffonts.googleapis.com%2Fcss%3Ffamily%3DUbuntu;fontSize=17;" vertex="1" parent="dVgFs5One8DjvJMpintY-1">
          <mxGeometry x="80" y="540" width="320" height="40" as="geometry" />
        </mxCell>
        <mxCell id="dVgFs5One8DjvJMpintY-12" value="" style="rounded=0;whiteSpace=wrap;html=1;" vertex="1" parent="dVgFs5One8DjvJMpintY-1">
          <mxGeometry x="490" y="240" width="20" height="40" as="geometry" />
        </mxCell>
        <mxCell id="dVgFs5One8DjvJMpintY-13" value="int length = 0" style="rounded=0;whiteSpace=wrap;html=1;fontSize=18;fontFamily=Ubuntu;fontSource=https%3A%2F%2Ffonts.googleapis.com%2Fcss%3Ffamily%3DUbuntu;" vertex="1" parent="dVgFs5One8DjvJMpintY-1">
          <mxGeometry x="490" y="280" width="140" height="40" as="geometry" />
        </mxCell>
        <mxCell id="dVgFs5One8DjvJMpintY-14" value="0xAF10" style="rounded=0;whiteSpace=wrap;html=1;fontFamily=Ubuntu;fontSource=https%3A%2F%2Ffonts.googleapis.com%2Fcss%3Ffamily%3DUbuntu;fontSize=17;fillColor=#dae8fc;strokeColor=#6c8ebf;" vertex="1" parent="dVgFs5One8DjvJMpintY-1">
          <mxGeometry x="490" y="210" width="140" height="30" as="geometry" />
        </mxCell>
        <mxCell id="dVgFs5One8DjvJMpintY-15" value="..." style="rounded=0;whiteSpace=wrap;html=1;fontSize=18;fontFamily=Ubuntu;fontSource=https%3A%2F%2Ffonts.googleapis.com%2Fcss%3Ffamily%3DUbuntu;" vertex="1" parent="dVgFs5One8DjvJMpintY-1">
          <mxGeometry x="490" y="320" width="140" height="40" as="geometry" />
        </mxCell>
        <mxCell id="dVgFs5One8DjvJMpintY-16" value="&lt;font style=&quot;font-size: 20px;&quot;&gt;25&lt;br&gt;&lt;/font&gt;" style="text;html=1;strokeColor=#b85450;fillColor=#f8cecc;align=left;verticalAlign=top;whiteSpace=wrap;rounded=0;fontFamily=Ubuntu;fontSource=https%3A%2F%2Ffonts.googleapis.com%2Fcss%3Ffamily%3DUbuntu;fontSize=20;" vertex="1" parent="dVgFs5One8DjvJMpintY-1">
          <mxGeometry x="710" y="80" width="480" height="230" as="geometry" />
        </mxCell>
        <mxCell id="dVgFs5One8DjvJMpintY-17" value="int x = 25" style="rounded=0;whiteSpace=wrap;html=1;fontFamily=Ubuntu;fontSource=https%3A%2F%2Ffonts.googleapis.com%2Fcss%3Ffamily%3DUbuntu;fontSize=17;" vertex="1" parent="dVgFs5One8DjvJMpintY-1">
          <mxGeometry x="80" y="500" width="320" height="40" as="geometry" />
        </mxCell>
        <mxCell id="dVgFs5One8DjvJMpintY-18" value="Processor" style="rhombus;whiteSpace=wrap;html=1;fontFamily=Ubuntu;fontSource=https%3A%2F%2Ffonts.googleapis.com%2Fcss%3Ffamily%3DUbuntu;fontSize=23;" vertex="1" parent="dVgFs5One8DjvJMpintY-1">
          <mxGeometry x="430" y="-180" width="210" height="170" as="geometry" />
        </mxCell>
        <mxCell id="dVgFs5One8DjvJMpintY-19" value="??" style="rounded=0;whiteSpace=wrap;html=1;fontFamily=Ubuntu;fontSource=https%3A%2F%2Ffonts.googleapis.com%2Fcss%3Ffamily%3DUbuntu;fontSize=17;" vertex="1" parent="dVgFs5One8DjvJMpintY-1">
          <mxGeometry x="640" y="-125" width="120" height="60" as="geometry" />
        </mxCell>
        <mxCell id="dVgFs5One8DjvJMpintY-20" value="CPU Register" style="text;html=1;strokeColor=none;fillColor=none;align=center;verticalAlign=middle;whiteSpace=wrap;rounded=0;fontFamily=Ubuntu;fontSource=https%3A%2F%2Ffonts.googleapis.com%2Fcss%3Ffamily%3DUbuntu;fontSize=19;" vertex="1" parent="dVgFs5One8DjvJMpintY-1">
          <mxGeometry x="630" y="-160" width="140" height="30" as="geometry" />
        </mxCell>
        <mxCell id="dVgFs5One8DjvJMpintY-21" value="" style="shape=stencil(lVrJch03DPwaXVncl7OT/IerLMeqOJZLdra/T09U4HtszrTim/3U4BAklgbAh/Tu26f3Xx8fov/2/eX5t8e/nj58//SQfnqI8enLp8eXp+/410P6+SG9+/j88vjry/MfXz68/v/r+wN5/Ov35z+PFf5+lRvDhXxIRf/P6y/R1fLfD7+84j8/fbnHN1fKgg8uVYHPbvgF712PAh9dq4SX+/EuJsKXfI3v2D/vpwSBz642wjehbw+uNT4fsZ82XGx0/n4IfHMhEr53gS8ur+snV9T62YWx4LOL4nxacqERvqn1I+tb9PkElwPhexN4mMtqP9Vlf42vw41E+CHOE/iw4pt98BzfXVj9pduFnOPx+fV8hhnsOb6wvgEnoBTAffZVINgRnAvAwOgLyUWlMix+NaEAJxI2UYbr65mGalZ1LtBdXINWwC0IKyqVvTgM54UOpbiwhgn4fVZfSC6vSsPxlaEW/Hk1bHhmFpGueOfXU4IrBHFxubNrwra7EqjmilOgu6IEsu14BhfvkogWOdp6UyCaf5wLeL64lNwQAqmztaYiHTQ151d/wC9RKI318hqB8c0mPA47pi1lfUo4k7Qeaw4yyOPUB30BtiR0QFCpqw65SH+AIaT14mAsKg8iLFKchDlmEQRgm54CvbdIdS6QzRCmQDQPORdIm0ByTdwDBMjjEBbklmDMqy0h8DQRBOKe3br0h4N9rBeH4JmVDlvUqHApcUoIjGnVAfG8iS2Fbgl/CiBjiJQFAaIANWmBxpwQSUx5HAQoxyFNqptGvqFgjDxc1Zaqsd4p0GReD4V5MJhBUjoU8+ApgJtRW8oWIyYz8RZHrgTiqgPIVhHcHHm/0BeiJPMhblvCN7VAXE8J/LUpgbnjKdDMus4FPAfj1iVhhUBcv9C9pD/D3GvigzSlYXx/4qMZ43mFYfx94hHXxBEhoKymjZJG8b3JpCa+2JFd4Klg6Ih5ik+6Rus3WZFUy5UT3zUTs9OY+CEtoli9OAm3N+53gScTBb6L/Wf768QHWdGCK6/6oiRWgSK7tOo7ktx/dr4xXtIXi80TD9Yn8dQgGMVaDBf45BmvmEVifxlVVpBb+QL8UBmTC6rRdIblKDq6jtNbgdfdEPtHhCP8ME58gSdODrzMrpyNgVfnE5zPG17YgzfruhWo4CRiQ55rhOMDQmG/GdCwXHuBD9v6ygGw27hdgLiwqd0dXjFfvznkkAbtrSFzh1dJ1TPHPHp+El83A/Ly/Me2vqolggt12480uLSdT5QGXbb7SopDWHq+vy/pYJSAx6ymrvDb+irABa7CDwdWTJE7gof9i/W99SX+v0NyRsIHpEHvF6YYh+eq6VBYGqjfDFT1l84cUvWI/UmES3r9H8Rn0rfLFgUuLDPey4xBjAkZ7A2HofMER5N4KpaGbtfFLcAVKyQu8OwAWWaYyIwbeNVficwQwYBUSZy4AgAjUxk7bYwy6o7SxlCCTBh5SwBeMu7MZRsYseqhZfPuO7wK0IUTDBi6apMU1hcVgOpWbW1JVBjKfqpFj7sKRlX/8A7SN0vG1HjEgwpMlZBbvwMVnmrRd/YvVJAqIQ2bcNxVqKoxHLaAhRpYUkpv8fWuylZtqrDlbNTxqshD4e+pLM/Wl70SaGvQalHrkLht2+Ymr9ojfEpeh1H4GfWEhj6lsvXmum6PFKYStclId3SdqBFW5ZAh4M+kQzGtrgSoqVqz7i+27QtJ1sMQGFt/UfHv0Dne1aCNb/AMuXrNAAdT3jJkT2inUKVJCnXk8K2TrEhmjKzDMcJSAokHk2VW7lf9duLtRU+4jk7J6nHFyzyyB/qsS2lEYvK4XLUO23QoZyNX56l56/7lJINACttkJWhykfgBRvayfErZyJkJpC6fMKTKtoRfVIGA9WhLx8xLKT04CEArxSDzRiFxbrKJlozhTIFZBZwLFCaFtzR8LrDFJZijinx5MM0+Wn164kudq8MHFU+KTDSibiWXzJP3o7bSY266uKC74QhbZVUa4Vll0bK1t2+TkHPy5vnikFezCGTIBjSqBzeQTzgSZ1HQFZVQkNH4BYSXLVkkWXKgIS+6bvOqLmP3QRPWW5gU9hw/NqKhCfTgirPIDlzbpvRFsoxjzrTq+8ZIIm5xXsajlriFleTDB3BN6skmG2qc47fnJFHr23kOpkcAPfBjEi8jC+oVqjj1iKpvXqwbQMcjO96PmrSPbe6nC5JR2J697NiNzmQn2OOBc/zG16Jef7A96BHMXQPtziAURT0TUDn81mO/w4sdje1Zm+bMR8etMF54wK2FecOrFsTRoeP1VQ/01qG7w6sSeHB19+b6nLxtLHmFj9v6ymN+9Fntm3j84/aG9+PT58+vT4Dv/85vfvHT63vh9PO/);lineShape=1;" vertex="1" parent="dVgFs5One8DjvJMpintY-1">
          <mxGeometry x="351.31797910810906" y="-82.40651814279545" width="348.28127036535614" height="593.6749567943568" as="geometry" />
        </mxCell>
        <mxCell id="dVgFs5One8DjvJMpintY-22" value="" style="shape=stencil(lVfLctswDPwaXTEkQYLkOU3/IzNxak9dO+M4bfP3gaqhY1DWurrJMlfEY3cJDvzwtn163QzBvZ1Px5+bP7vn83bgb0MIu8N2c9qd9Wngx4EfXo6nzY/T8f3wPP1+fRpXjk+/jr/HL/ydcJ6J/YgK7mN6I8T534vv0/r97nC9XkjYrPeVYl0GBE+xGABnCgIAiSQaQAqUPABUCtmmIFTCMoCZqgXkTB7sEJmCzSEzOZC0RlxsDpJhlSSR69rgKZVlQE6UbQ5JqIIcqqNcLSCSA1WqTOJ6QIwAIORnIXkHAIVCsIACG1crpa6sodH3NludI2eTUG4EVKbZFtlBbsyTyJfCLZZJLEBgEtqIZDundK1Ao2OrO7oWiiCkUhoTrnZICQBSzw3lI9Jo4Z6uWUWNQgqUbUii3GAISJ0LRCpAQRoSWydTyTkEiE1gF7pmKijpPBNEogj4XSqV1EvOA6+sgaSsAiRiWRNSzSSrklYB+bqmrAqoNumxccArFdA52UgNZEyFst3hDvmq9J2+Q+8am7v/p4Cqp2zJd0eiqwHFtRQbQN94UFb1uU5ASnjkS6n2J7vyV0Cno0Zsd1A6osax9GZ8Zei3ZwGljvRbZNAIr9ywrS740PKxH4DU7zPI2vu+rmPhgEbV3K3z6fghwO65Z7dOUGgScG3AuxQ1QGedHaH+wpSl9bZABc57rhXjawBFY4lvH7uMk1TR+ElsORoogOVaS/t13+ay2xIgtq1yFEAlpZ87MZlLb72ubbcw7JBPXfBI8CMxXVebBNToZyes+gNSytqrxd31+vB1j3nZ7ffTNej6//7eo6+mOxM/fgI=);lineShape=1;" vertex="1" parent="dVgFs5One8DjvJMpintY-1">
          <mxGeometry x="338.881075040553" y="499.1623309527654" width="37.86280114839268" height="27.11135181863777" as="geometry" />
        </mxCell>
      </root>
    </mxGraphModel>
  </diagram>
  <diagram name="Page-4" id="KiIPuWGPB0BW5sC4TWYF">
    <mxGraphModel dx="880" dy="1336" grid="1" gridSize="10" guides="1" tooltips="1" connect="1" arrows="1" fold="1" page="1" pageScale="1" pageWidth="1100" pageHeight="850" math="0" shadow="0">
      <root>
        <mxCell id="3uokwBEP8TG1qWZlG908-0" />
        <mxCell id="3uokwBEP8TG1qWZlG908-1" parent="3uokwBEP8TG1qWZlG908-0" />
        <mxCell id="3uokwBEP8TG1qWZlG908-2" value="" style="rounded=0;whiteSpace=wrap;html=1;" vertex="1" parent="3uokwBEP8TG1qWZlG908-1">
          <mxGeometry x="80" y="50" width="320" height="530" as="geometry" />
        </mxCell>
        <mxCell id="3uokwBEP8TG1qWZlG908-3" value="" style="rounded=0;whiteSpace=wrap;html=1;" vertex="1" parent="3uokwBEP8TG1qWZlG908-1">
          <mxGeometry x="400" y="50" width="640" height="530" as="geometry" />
        </mxCell>
        <mxCell id="3uokwBEP8TG1qWZlG908-4" value="main thread" style="shape=hexagon;perimeter=hexagonPerimeter2;whiteSpace=wrap;html=1;fixedSize=1;fontFamily=Ubuntu;fontSource=https%3A%2F%2Ffonts.googleapis.com%2Fcss%3Ffamily%3DUbuntu;fontSize=17;" vertex="1" parent="3uokwBEP8TG1qWZlG908-1">
          <mxGeometry x="180" y="10" width="120" height="30" as="geometry" />
        </mxCell>
        <mxCell id="3uokwBEP8TG1qWZlG908-5" value="STACK" style="text;html=1;strokeColor=none;fillColor=none;align=center;verticalAlign=middle;whiteSpace=wrap;rounded=0;fontFamily=Ubuntu;fontSource=https%3A%2F%2Ffonts.googleapis.com%2Fcss%3Ffamily%3DUbuntu;fontSize=16;fontStyle=1" vertex="1" parent="3uokwBEP8TG1qWZlG908-1">
          <mxGeometry x="200" y="590" width="60" height="30" as="geometry" />
        </mxCell>
        <mxCell id="3uokwBEP8TG1qWZlG908-6" value="HEAP" style="text;html=1;strokeColor=none;fillColor=none;align=center;verticalAlign=middle;whiteSpace=wrap;rounded=0;fontFamily=Ubuntu;fontSource=https%3A%2F%2Ffonts.googleapis.com%2Fcss%3Ffamily%3DUbuntu;fontSize=16;fontStyle=1" vertex="1" parent="3uokwBEP8TG1qWZlG908-1">
          <mxGeometry x="510" y="590" width="60" height="30" as="geometry" />
        </mxCell>
        <mxCell id="3uokwBEP8TG1qWZlG908-12" value="" style="rounded=0;whiteSpace=wrap;html=1;" vertex="1" parent="3uokwBEP8TG1qWZlG908-1">
          <mxGeometry x="490" y="240" width="20" height="40" as="geometry" />
        </mxCell>
        <mxCell id="3uokwBEP8TG1qWZlG908-13" value="int length = 0" style="rounded=0;whiteSpace=wrap;html=1;fontSize=18;fontFamily=Ubuntu;fontSource=https%3A%2F%2Ffonts.googleapis.com%2Fcss%3Ffamily%3DUbuntu;" vertex="1" parent="3uokwBEP8TG1qWZlG908-1">
          <mxGeometry x="490" y="280" width="140" height="40" as="geometry" />
        </mxCell>
        <mxCell id="3uokwBEP8TG1qWZlG908-14" value="0xAF10" style="rounded=0;whiteSpace=wrap;html=1;fontFamily=Ubuntu;fontSource=https%3A%2F%2Ffonts.googleapis.com%2Fcss%3Ffamily%3DUbuntu;fontSize=17;fillColor=#dae8fc;strokeColor=#6c8ebf;" vertex="1" parent="3uokwBEP8TG1qWZlG908-1">
          <mxGeometry x="490" y="210" width="140" height="30" as="geometry" />
        </mxCell>
        <mxCell id="3uokwBEP8TG1qWZlG908-15" value="..." style="rounded=0;whiteSpace=wrap;html=1;fontSize=18;fontFamily=Ubuntu;fontSource=https%3A%2F%2Ffonts.googleapis.com%2Fcss%3Ffamily%3DUbuntu;" vertex="1" parent="3uokwBEP8TG1qWZlG908-1">
          <mxGeometry x="490" y="320" width="140" height="40" as="geometry" />
        </mxCell>
        <mxCell id="3uokwBEP8TG1qWZlG908-16" value="&lt;font style=&quot;font-size: 20px;&quot;&gt;25&lt;br&gt;&lt;/font&gt;" style="text;html=1;strokeColor=#b85450;fillColor=#f8cecc;align=left;verticalAlign=top;whiteSpace=wrap;rounded=0;fontFamily=Ubuntu;fontSource=https%3A%2F%2Ffonts.googleapis.com%2Fcss%3Ffamily%3DUbuntu;fontSize=20;" vertex="1" parent="3uokwBEP8TG1qWZlG908-1">
          <mxGeometry x="710" y="80" width="480" height="230" as="geometry" />
        </mxCell>
        <mxCell id="3uokwBEP8TG1qWZlG908-18" value="Processor" style="rhombus;whiteSpace=wrap;html=1;fontFamily=Ubuntu;fontSource=https%3A%2F%2Ffonts.googleapis.com%2Fcss%3Ffamily%3DUbuntu;fontSize=23;" vertex="1" parent="3uokwBEP8TG1qWZlG908-1">
          <mxGeometry x="430" y="-180" width="210" height="170" as="geometry" />
        </mxCell>
        <mxCell id="3uokwBEP8TG1qWZlG908-19" value="??" style="rounded=0;whiteSpace=wrap;html=1;fontFamily=Ubuntu;fontSource=https%3A%2F%2Ffonts.googleapis.com%2Fcss%3Ffamily%3DUbuntu;fontSize=17;" vertex="1" parent="3uokwBEP8TG1qWZlG908-1">
          <mxGeometry x="640" y="-125" width="120" height="60" as="geometry" />
        </mxCell>
        <mxCell id="3uokwBEP8TG1qWZlG908-20" value="CPU Register" style="text;html=1;strokeColor=none;fillColor=none;align=center;verticalAlign=middle;whiteSpace=wrap;rounded=0;fontFamily=Ubuntu;fontSource=https%3A%2F%2Ffonts.googleapis.com%2Fcss%3Ffamily%3DUbuntu;fontSize=19;" vertex="1" parent="3uokwBEP8TG1qWZlG908-1">
          <mxGeometry x="630" y="-160" width="140" height="30" as="geometry" />
        </mxCell>
        <mxCell id="YGZDF4AJCyZr9cMl2XOc-0" value="" style="shape=stencil(lVjbchoxDP0aXjXy3X5O0//ITEhhSiFD6O3vqy3jxZa7Z7tvsNaxJR3JkrxzTx+Hl/f9zvLH7Xr5uv95fL0ddu7Tztrj+bC/Hm/ya+eed+7p7XLdf7levp9f7//fXybJ6de3y49ph193HJM3E8jy7/qBy98Pn+/ip+O5EbfkQyduKfGyeKRpqRFP5PyyeNHKGEPWLMsbR670gEgM9DG57jfrbyglYK8n01tgM0UAcEyhV8mJShkAEmXuAN4Tu2WAD8Q9B8FQjMuAYIlTD8iUAA2yXHovxUAWnCDLPvY8C3GAB1lWXkqRvAWASLk3OoujgVuzqfvNAEcFGJ09ldwDIgzWLMQpgEQXyJ3CdbkC5AsDo4slowBiFTrBUeqJky0S8FIRo/vgky0KyLgSKPdulS0yUilSVCcESgiQBi9FyLQAVLROW4BoLVlfYmXOwSWACg35Au+xQrnPB/liQE7LcnEaYFcAWQMcMNow15uxQQREtRxRNADdMxMgaACkuugMmrZARBR9Vz78sARIPaDxwxIimo1HBDsAsF/9EBww/Iq+ytaJ8IMNK1T7IfxQNE2AgbmVeA1DbKxkRPQagOroRPUIAJV68vpgtFlJiMGtBsd3SYNbUT/zzyT1m9M6rlgxKJXCRrPzVscWHE2Kuv/J0oHsgqkY469sDVgIkL5wSAlGfs1k1AlSmJBfE0Xl11TrzBKArQYYpNLc8TS1Fxa6UEtzU91RvEq3EFX0eQqIaVeXmw7FIabtkBAWpzXX5aYti8BL0vipoiKNHwoNaS1zf4K0lgUwLc2r7XmQLQJwq7THUbXHqw2464lLCU4d0wTQqyRboKoVhnyQLVC0yhSjro0gtyUahAa3yqRjQbTKqKVyWraIwAYZ5lyvkgxzEZxgnR5TZKZFKplUh5IZYKHRMvKqgVRG3oBujVpmm5kaNWVBd6KioQUWk+n1d3AGml8XHs8NEYsHLQ6cw/q+40r4kjgrcb9NHPVIIq5fVizgScS9Ejeg3eHaDDXi4JJjHTUMa9N8diMOgoD13YCrt/hNO5Kh7k4HAYOU2viitSouPx6PZ2/H0+n+9tau68c2+XR/qHPPfwA=);lineShape=1;" vertex="1" parent="3uokwBEP8TG1qWZlG908-1">
          <mxGeometry x="184.58919626197144" y="133.58621910505053" width="567.9799300729053" height="361.63251002151287" as="geometry" />
        </mxCell>
        <mxCell id="YGZDF4AJCyZr9cMl2XOc-1" value="" style="shape=stencil(lVjZUhsxEPwav06NNDqfCfkPqjDBFYIpQ66/z2xcMjujdVO8maVbV/cc0k5uXh/vXva7yK9vp+P3/e/D/dvjTr7sYjw8P+5Phzf9tZPbndw8HE/7b6fjz+f7898vdwty+fXj+GsZ4c+Z1zv1srAi/z1/YUrt/4evZ/zT4XmNb1QsPlIrAF9ILL5QSACfSLrBN6oZ4AO1ZvAhEoMFtUY5WkIZU24TEiVLiIFSuE6onWqyhEItAkKiEgxB4ljkJqF0itUSGkWgWhFqdklJqINjzTqe3XTqVMCScvTHmvMYYpOQKrEVrjBJBYRA3c5QMrSSFOrWSgXvQU+dLaHKmHOTEKvXobaxq22CnlK27o4U+DohNAqOkKkhQqJgvdT6+LJNYMqWoCHVQTxUEmslDdkEAi55J2lKaMB6YeSTC/6ScjbxPILxgteUBmyhLpMJDzRjilaBwEwMJGAKdZoAHCgPB6zx4IB09uzxDW6ApwNCFrrsboWvwEGKjx6PwoxHfl7hMxQsTOOjEqX4PuHh+HHSC+NlOn8UAOzrx7JfeJ5pWk+G+82TXgUk0i18xeuf1oMCWPFzgEE/yOSHDtcfXcX/MCDjHGA4ICfBOjyg2dAdB9g0fpNPBiQ06BzwBSeU5PEZ7ndOWBknxE/hw7D7qgJEgJeR71cVRkDA1EmvBP2jJTJOJTIDwYKMfu9ShBtUINQRUasyL4CgjYSrSi3AGbQFdX1+rVRQ9xSoWhW0GUJpV9utYvOEtlsBELShK9YXJcFCk8q4Clx6TA00oIM2pa4UZJ0BRH5WHSxB215kPW2skyMILGal+S5WdE6Q7fRy4JTWNjWAdKrXD7HCqfYJEPSC4+JfI5DBsaqZg83weoViIJyGizuloNqjW6b41r3Bu0HPPgVkqgjfvDEiVG2p8NbbPPrya3h3G+JxtbiK9+MzXk8Rj0cCaMFgjwe2XvDTejC+TesBDlrw3eORXt3ryzAG3lv6FR6c/6qDeCdEUAI3CYIV637H6BHh0+8yH+L1x/sj0MPh6en8hrT+v3800k/nBye5/Qc=);lineShape=1;" vertex="1" parent="3uokwBEP8TG1qWZlG908-1">
          <mxGeometry x="223.15069285203435" y="100.58723844655037" width="498.2615371362142" height="443.933500812856" as="geometry" />
        </mxCell>
      </root>
    </mxGraphModel>
  </diagram>
</mxfile>
